<svg width="30" height="30" viewBox="0 0 30 30" fill="none" xmlns="http://www.w3.org/2000/svg">
<path fill-rule="evenodd" clip-rule="evenodd" d="M8.75 15C8.75 11.5482 11.5482 8.75 15 8.75C18.4518 8.75 21.25 11.5482 21.25 15C21.25 18.4518 18.4518 21.25 15 21.25C11.5482 21.25 8.75 18.4518 8.75 15ZM15 11.25C12.9289 11.25 11.25 12.9289 11.25 15C11.25 17.0711 12.9289 18.75 15 18.75C17.0711 18.75 18.75 17.0711 18.75 15C18.75 12.9289 17.0711 11.25 15 11.25Z" fill="white"/>
<path d="M21.25 10C21.9404 10 22.5 9.44036 22.5 8.75C22.5 8.05964 21.9404 7.5 21.25 7.5C20.5596 7.5 20 8.05964 20 8.75C20 9.44036 20.5596 10 21.25 10Z" fill="white"/>
<path fill-rule="evenodd" clip-rule="evenodd" d="M11.6965 2.5H18.3035C19.6582 2.49999 20.7509 2.49998 21.6358 2.57227C22.5468 2.64671 23.3471 2.80398 24.0874 3.18121C25.2635 3.78042 26.2196 4.73655 26.8188 5.91256C27.196 6.65292 27.3533 7.45316 27.4277 8.36422C27.5 9.24903 27.5 10.3417 27.5 11.6963V18.3035C27.5 19.6582 27.5 20.751 27.4277 21.6358C27.3533 22.5468 27.196 23.3471 26.8188 24.0874C26.2196 25.2635 25.2635 26.2196 24.0874 26.8188C23.3471 27.196 22.5468 27.3533 21.6358 27.4277C20.751 27.5 19.6583 27.5 18.3037 27.5H11.6965C10.3418 27.5 9.24903 27.5 8.36422 27.4277C7.45316 27.3533 6.65292 27.196 5.91256 26.8188C4.73655 26.2196 3.78042 25.2635 3.18121 24.0874C2.80398 23.3471 2.64671 22.5468 2.57227 21.6358C2.49998 20.7509 2.49999 19.6582 2.5 18.3035V11.6965C2.49999 10.3418 2.49998 9.24907 2.57227 8.36422C2.64671 7.45316 2.80398 6.65292 3.18121 5.91256C3.78042 4.73655 4.73655 3.78042 5.91256 3.18121C6.65292 2.80398 7.45316 2.64671 8.36422 2.57227C9.24907 2.49998 10.3418 2.49999 11.6965 2.5ZM8.5678 5.06397C7.81134 5.12578 7.37673 5.24099 7.04754 5.40873C6.34193 5.76825 5.76825 6.34193 5.40873 7.04754C5.24099 7.37673 5.12578 7.81134 5.06397 8.5678C5.00097 9.33885 5 10.3292 5 11.75V18.25C5 19.6708 5.00097 20.6611 5.06397 21.4322C5.12578 22.1887 5.24099 22.6233 5.40873 22.9525C5.76825 23.6581 6.34193 24.2317 7.04754 24.5913C7.37673 24.759 7.81134 24.8742 8.5678 24.936C9.33885 24.999 10.3292 25 11.75 25H18.25C19.6708 25 20.6611 24.999 21.4322 24.936C22.1887 24.8742 22.6233 24.759 22.9525 24.5913C23.6581 24.2317 24.2317 23.6581 24.5913 22.9525C24.759 22.6233 24.8742 22.1887 24.936 21.4322C24.999 20.6611 25 19.6708 25 18.25V11.75C25 10.3292 24.999 9.33885 24.936 8.5678C24.8742 7.81134 24.759 7.37673 24.5913 7.04754C24.2317 6.34193 23.6581 5.76825 22.9525 5.40873C22.6233 5.24099 22.1887 5.12578 21.4322 5.06397C20.6611 5.00097 19.6708 5 18.25 5H11.75C10.3292 5 9.33885 5.00097 8.5678 5.06397Z" fill="white"/>
</svg>
