<svg width="30" height="30" viewBox="0 0 30 30" fill="none" xmlns="http://www.w3.org/2000/svg">
<path d="M26.4502 9.24805C26.582 8.7207 26.4502 8.28125 25.6592 8.28125H23.0664C22.4072 8.28125 22.0996 8.63281 21.9238 9.02832C21.9238 9.02832 20.6055 12.2363 18.7598 14.3457C18.1445 14.917 17.8809 15.1367 17.5293 15.1367C17.3975 15.1367 17.1338 14.917 17.1338 14.3896V9.24805C17.1338 8.58887 16.958 8.28125 16.3867 8.28125H12.3438C11.9043 8.28125 11.6846 8.58887 11.6846 8.89648C11.6846 9.51172 12.6074 9.64355 12.6953 11.4014V15.2246C12.6953 16.0596 12.5635 16.2354 12.2119 16.2354C11.333 16.2354 9.22363 12.9834 7.94922 9.29199C7.68555 8.58887 7.42188 8.28125 6.7627 8.28125H4.16992C3.4668 8.28125 3.29102 8.63281 3.29102 9.02832C3.29102 9.73145 4.16992 13.1152 7.37793 17.6416C9.53125 20.7178 12.5635 22.3438 15.2881 22.3438C16.9141 22.3438 17.1338 21.9922 17.1338 21.377C17.1338 18.4326 17.002 18.125 17.793 18.125C18.1885 18.125 18.8477 18.3447 20.3857 19.8389C22.1436 21.5967 22.4512 22.3438 23.418 22.3438H26.0107C26.7578 22.3438 27.1094 21.9922 26.8896 21.2451C26.4062 19.751 23.1104 16.5869 22.9346 16.3672C22.5391 15.8838 22.6709 15.6641 22.9346 15.2246C22.9346 15.2246 26.0986 10.7422 26.4502 9.24805Z" fill="white"/>
</svg>
