<svg width="30" height="30" viewBox="0 0 30 30" fill="none" xmlns="http://www.w3.org/2000/svg">
<path fill-rule="evenodd" clip-rule="evenodd" d="M11.9995 19.875C12.2495 20 12.3745 20 12.6245 20C12.7495 20 12.9995 20 13.2495 19.875L19.7495 16.125C20.1245 15.875 20.3745 15.5 20.3745 15C20.3745 14.5 20.1245 14.125 19.7495 13.875L13.2495 10.125C12.8745 9.87502 12.3745 9.87502 11.9995 10.125C11.6245 10.375 11.3745 10.75 11.3745 11.25V18.75C11.3745 19.25 11.6245 19.625 11.9995 19.875ZM16.6245 15L13.8745 16.625V13.375L16.6245 15Z" fill="white"/>
<path fill-rule="evenodd" clip-rule="evenodd" d="M2.5 15C2.5 23.375 3.875 23.75 15 23.75C26.125 23.75 27.5 23.375 27.5 15C27.5 6.625 26.125 6.25 15 6.25C3.875 6.25 2.5 6.625 2.5 15ZM6 9.5C7.125 8.75 10.25 8.75 15 8.75C19.75 8.75 22.875 8.75 24 9.5C24.875 10.125 25 11.375 25 15C25 18.625 24.875 19.875 24 20.5C22.875 21.25 19.75 21.25 15 21.25C10.25 21.25 7.125 21.25 6 20.5C5.125 19.875 5 18.625 5 15C5 11.375 5.125 10.125 6 9.5Z" fill="white"/>
</svg>
