<svg width="488" height="78" viewBox="0 0 488 78" fill="none" xmlns="http://www.w3.org/2000/svg">
<path d="M54.1565 35.4504H18.2778V40.9612H54.1565V35.4504Z" fill="white"/>
<path d="M57.5412 71.5562H18.2778V77.0669H57.5412V71.5562Z" fill="white"/>
<path d="M57.0335 0H18.2778V5.51071H57.0335V0Z" fill="white"/>
<path d="M106.366 37.5878C112.459 34.38 116.521 28.2113 116.521 20.7266C116.521 9.62288 107.213 0.493164 95.7044 0.493164H64.1414V26.4841H70.1493V6.0039H95.789C103.912 6.0039 110.597 12.5839 110.597 20.7266C110.597 28.8693 103.912 35.4493 95.789 35.4493H83.35H70.1493H64.1414V40.96H70.1493H83.35H98.4122C107.043 40.96 114.067 47.869 114.067 56.5052C114.067 65.0592 107.043 72.0504 98.4122 72.0504H70.234V50.0897H64.226V77.5611H98.4122C110.428 77.5611 120.075 68.1847 120.075 56.5052C119.99 47.7045 114.321 40.5488 106.366 37.5878Z" fill="white"/>
<path d="M174.485 5.51071H137.084V77.068H131.076V0H174.485V5.51071Z" fill="white"/>
<path d="M473.953 57.4925H434.182L426.482 77.068H420.135L450.937 0H457.283L488 77.068H481.654L473.953 57.4925ZM471.838 51.9818L454.152 7.15571L436.467 51.9818H471.838Z" fill="white"/>
<path d="M311.484 0.658447V77.7264H305.476V40.8785H259.358V77.7264H253.35V0.658447H259.358V35.3678H305.476V0.658447H311.484Z" fill="white"/>
<path d="M376.98 38.0821L417.09 0.658447H409.051L370.803 36.1903V40.2205L410.151 77.7264H418.19L376.98 38.0821Z" fill="white"/>
<path d="M363.441 0.658447L317.154 66.2937L316.562 76.7394L362.764 11.5154V77.7264H368.772V0.658447H363.441Z" fill="white"/>
<path d="M18.1932 0H0V5.51071H18.1932V0Z" fill="white"/>
<path d="M18.1932 35.4504H0V40.9612H18.1932V35.4504Z" fill="white"/>
<path d="M70.1495 35.4504H51.9563V40.9612H70.1495V35.4504Z" fill="white"/>
<path d="M18.1932 71.5562H0V77.0669H18.1932V71.5562Z" fill="white"/>
<path d="M238.457 35.4504H202.579V40.9612H238.457V35.4504Z" fill="white"/>
<path d="M241.842 71.5562H202.579V77.0669H241.842V71.5562Z" fill="white"/>
<path d="M241.334 0H202.579V5.51071H241.334V0Z" fill="white"/>
<path d="M202.494 0H184.301V5.51071H202.494V0Z" fill="white"/>
<path d="M202.494 35.4504H184.301V40.9612H202.494V35.4504Z" fill="white"/>
<path d="M256.65 35.4504H238.457V40.9612H256.65V35.4504Z" fill="white"/>
<path d="M202.494 71.5562H184.301V77.0669H202.494V71.5562Z" fill="white"/>
</svg>
